<svg width="79" height="79" viewBox="0 0 79 79" fill="none" xmlns="http://www.w3.org/2000/svg">
<path d="M56.031 49.7605H52.5013L51.2503 48.5541C55.6289 43.4607 58.2649 36.8482 58.2649 29.6548C58.2649 13.615 45.2633 0.613281 29.2234 0.613281C13.1836 0.613281 0.181885 13.615 0.181885 29.6548C0.181885 45.6947 13.1836 58.6963 29.2234 58.6963C36.4168 58.6963 43.0293 56.0603 48.1227 51.6817L49.3291 52.9327V56.4624L71.6687 78.7573L78.3259 72.1001L56.031 49.7605ZM29.2234 49.7605C18.0983 49.7605 9.11774 40.78 9.11774 29.6548C9.11774 18.5297 18.0983 9.54914 29.2234 9.54914C40.3486 9.54914 49.3291 18.5297 49.3291 29.6548C49.3291 40.78 40.3486 49.7605 29.2234 49.7605Z" fill="white"/>
<path d="M40.3934 31.8891H31.4575V40.825H26.9896V31.8891H18.0537V27.4212H26.9896V18.4854H31.4575V27.4212H40.3934V31.8891Z" fill="white"/>
</svg>

